<svg xmlns="http://www.w3.org/2000/svg" width="24" height="24" fill="none"><mask id="a" width="24" height="24" x="0" y="0" maskUnits="userSpaceOnUse" style="mask-type:alpha"><path fill="#D9D9D9" d="M0 0h24v24H0z"/></mask><g mask="url(#a)"><path fill="#33A3A1" d="M4.62 18.12c1.02-.78 2.16-1.395 3.42-1.845 1.26-.45 2.58-.675 3.96-.675s2.7.225 3.96.675c1.26.45 2.4 1.065 3.42 1.845.7-.82 1.245-1.75 1.635-2.79.39-1.04.585-2.15.585-3.33 0-2.66-.935-4.925-2.805-6.795S14.66 2.4 12 2.4s-4.925.935-6.795 2.805S2.4 9.34 2.4 12c0 1.18.195 2.29.585 3.33.39 1.04.935 1.97 1.635 2.79ZM12 13.2c-1.18 0-2.175-.405-2.985-1.215S7.8 10.18 7.8 9s.405-2.175 1.215-2.985S10.82 4.8 12 4.8s2.175.405 2.985 1.215S16.2 7.82 16.2 9s-.405 2.175-1.215 2.985S13.18 13.2 12 13.2ZM12 24c-1.66 0-3.22-.315-4.68-.945-1.46-.63-2.73-1.485-3.81-2.565-1.08-1.08-1.935-2.35-2.565-3.81C.315 15.22 0 13.66 0 12c0-1.66.315-3.22.945-4.68.63-1.46 1.485-2.73 2.565-3.81C4.59 2.43 5.86 1.575 7.32.945 8.78.315 10.34 0 12 0c1.66 0 3.22.315 4.68.945 1.46.63 2.73 1.485 3.81 2.565 1.08 1.08 1.935 2.35 2.565 3.81.63 1.46.945 3.02.945 4.68 0 1.66-.315 3.22-.945 4.68-.63 1.46-1.485 2.73-2.565 3.81-1.08 1.08-2.35 1.935-3.81 2.565-1.46.63-3.02.945-4.68.945Z"/></g></svg>