<?xml version="1.0" encoding="UTF-8" standalone="no"?>
<svg
   height="24px"
   viewBox="0 -960 960 960"
   width="24px"
   fill="#000000"
   version="1.1"
   id="svg4"
   sodipodi:docname="account_error.svg"
   xml:space="preserve"
   inkscape:version="1.2.1 (9c6d41e, 2022-07-14)"
   xmlns:inkscape="http://www.inkscape.org/namespaces/inkscape"
   xmlns:sodipodi="http://sodipodi.sourceforge.net/DTD/sodipodi-0.dtd"
   xmlns="http://www.w3.org/2000/svg"
   xmlns:svg="http://www.w3.org/2000/svg"><defs
     id="defs8" /><sodipodi:namedview
     id="namedview6"
     pagecolor="#ffffff"
     bordercolor="#000000"
     borderopacity="0.25"
     inkscape:showpageshadow="2"
     inkscape:pageopacity="0.0"
     inkscape:pagecheckerboard="0"
     inkscape:deskcolor="#d1d1d1"
     showgrid="false"
     inkscape:zoom="10.383309"
     inkscape:cx="6.0674302"
     inkscape:cy="11.123622"
     inkscape:window-width="1440"
     inkscape:window-height="771"
     inkscape:window-x="0"
     inkscape:window-y="30"
     inkscape:window-maximized="1"
     inkscape:current-layer="svg4" /><path
     d="m 234,-276 c 34,-26 72,-46.5 114,-61.5 42,-15 86,-22.5 132,-22.5 46,0 90,7.5 132,22.5 42,15 80,35.5 114,61.5 23.33333,-27.33333 41.5,-58.33333 54.5,-93 13,-34.66667 19.5,-71.66667 19.5,-111 0,-88.66667 -108.2134,-160.31433 -170.54673,-222.64766 C 567.11993,-764.981 568.66667,-800 480,-800 c -88.66667,0 -164.16667,31.16667 -226.5,93.5 -62.33333,62.33333 -93.5,137.83333 -93.5,226.5 0,39.33333 6.5,76.33333 19.5,111 13,34.66667 31.16667,65.66667 54.5,93 z m 246,-164 c -39.33333,0 -72.5,-13.5 -99.5,-40.5 -27,-27 -40.5,-60.16667 -40.5,-99.5 0,-39.33333 13.5,-72.5 40.5,-99.5 27,-27 60.16667,-40.5 99.5,-40.5 39.33333,0 72.5,13.5 99.5,40.5 27,27 40.5,60.16667 40.5,99.5 0,39.33333 -13.5,72.5 -40.5,99.5 -27,27 -60.16667,40.5 -99.5,40.5 z m 0,360 c -55.33333,0 -107.33333,-10.5 -156,-31.5 -48.66667,-21 -91,-49.5 -127,-85.5 -36,-36 -64.5,-78.33333 -85.5,-127 -21,-48.66667 -31.5,-100.66667 -31.5,-156 0,-55.33333 10.5,-107.33333 31.5,-156 21,-48.66667 49.5,-91 85.5,-127 36,-36 78.33333,-64.5 127,-85.5 48.66667,-21 100.66667,-31.5 156,-31.5 55.33333,0 107.33333,10.5 156,31.5 48.66667,21 44.77196,207.4458 80.77196,243.4458 36,36 110.72804,-79.61247 131.72804,-30.9458 21,48.66667 31.5,100.66667 31.5,156 0,55.33333 -10.5,107.33333 -31.5,156 -21,48.66667 -49.5,91 -85.5,127 -36,36 -78.33333,64.5 -127,85.5 -48.66667,21 -100.66667,31.5 -156,31.5 z"
     id="path2"
     style="fill:#33a3a1;fill-opacity:1"
     sodipodi:nodetypes="cssscssssssscssssssssssssssssssssssssss" /><g
     style="fill:#dd443c;fill-opacity:1"
     id="g4972"
     transform="matrix(0.51277978,0,0,0.51277978,498.10326,-491.4328)"><path
       d="m 509,-291 q 11,-12 11,-29 0,-17 -11,-28 -11,-11 -29,-12 -18,-1 -28,12 -10,13 -12,28 -2,15 12,29 14,14 28,11 14,-3 29,-11 m -69,-149 h 80 v -240 h -80 z m 40,360 q -83,0 -156,-31 -73,-31 -127,-86 -54,-55 -85,-127 -31,-72 -32,-156 -1,-84 32,-156 33,-72 85,-127 52,-55 127,-85 75,-30 156,-32 81,-2 156,32 75,34 127,85 52,51 86,127 34,76 31,156 -3,80 -31,156 -28,76 -86,127 -58,51 -127,86 -69,35 -156,31"
       id="path4963"
       style="fill:#dd443c;fill-opacity:1" /></g></svg>
