<svg xmlns="http://www.w3.org/2000/svg" width="24" height="24"><path d="M20 .501C30.768.501 39.499 9.231 39.499 20c0 10.768-8.73 19.499-19.499 19.499C9.232 39.499.501 30.769.501 20 .501 9.232 9.231.501 20 .501Zm0 0" style="fill-rule:nonzero;fill:#33a3a1;fill-opacity:1;stroke-width:1;stroke-linecap:butt;stroke-linejoin:miter;stroke:#33a3a1;stroke-opacity:1;stroke-miterlimit:4" transform="scale(.6)"/><path d="M23.17 15.833a3.17 3.17 0 0 1-3.17 3.17 3.169 3.169 0 0 1-3.164-3.17A3.17 3.17 0 0 1 20 12.721a3.17 3.17 0 0 1 3.17 3.112Zm5 8.334a3.17 3.17 0 0 1-3.17 3.17 3.169 3.169 0 0 1-3.164-3.17A3.17 3.17 0 0 1 25 21.055a3.17 3.17 0 0 1 3.17 3.112ZM18.17 24.167A3.165 3.165 0 0 0 15 21.003a3.163 3.163 0 0 0-3.164 3.164c0 1.751 1.42 3.17 3.164 3.17a3.17 3.17 0 0 0 3.17-3.17Zm0 0" style="fill-rule:nonzero;fill:#fdcd56;fill-opacity:1;stroke-width:2;stroke-linecap:butt;stroke-linejoin:miter;stroke:#fdcd56;stroke-opacity:1;stroke-miterlimit:4" transform="scale(.6)"/></svg>