<svg xmlns="http://www.w3.org/2000/svg" width="24" height="24" fill="none"><mask id="a" width="24" height="24" x="0" y="0" maskUnits="userSpaceOnUse" style="mask-type:alpha"><path fill="#D9D9D9" d="M0 0h24v24H0z"/></mask><g mask="url(#a)"><path fill="#33A3A1" d="M20.15 13H8v-2h12.15L18.6 9.45 20 8l4 4-4 4-1.4-1.45L20.15 13ZM15 9V5H5v14h10v-4h2v4c0 .55-.1958 1.0208-.5875 1.4125C16.0208 20.8042 15.55 21 15 21H5c-.55 0-1.02083-.1958-1.4125-.5875C3.19583 20.0208 3 19.55 3 19V5c0-.55.19583-1.02083.5875-1.4125C3.97917 3.19583 4.45 3 5 3h10c.55 0 1.0208.19583 1.4125.5875C16.8042 3.97917 17 4.45 17 5v4h-2Z"/></g></svg>