<svg width="17" height="17" viewBox="0 0 17 17" fill="none" xmlns="http://www.w3.org/2000/svg">
<path d="M16.3333 13C16.3333 14.841 14.841 16.3333 13 16.3333C11.1591 16.3333 9.66667 14.841 9.66667 13C9.66667 11.1591 11.1591 9.66667 13 9.66667C14.841 9.66667 16.3333 11.1591 16.3333 13Z" fill="white"/>
<path fill-rule="evenodd" clip-rule="evenodd" d="M15.5 8.66891V1.54167C15.5 1.25 15.3819 1.01736 15.1458 0.84375C14.9097 0.670139 14.6528 0.638889 14.375 0.75L10.5 2.25L5.5 0.5L1.08333 2C0.902778 2.06944 0.760417 2.17361 0.65625 2.3125C0.552083 2.45139 0.5 2.61111 0.5 2.79167V14.4583C0.5 14.75 0.618056 14.9826 0.854167 15.1562C1.09028 15.3299 1.34722 15.3611 1.625 15.25L5.5 13.75L8.30847 14.733C8.10897 14.193 8 13.6092 8 13C8 12.9584 8.00051 12.9169 8.00152 12.8755L6.33333 12.2917V2.54167L9.66667 3.70833V9.27316C10.1476 8.84273 10.7123 8.50401 11.3333 8.28451V3.70833L13.8333 2.75V8.06913C14.4316 8.1695 14.9938 8.37612 15.5 8.66891ZM4.66667 12.2917L2.16667 13.25V3.375L4.66667 2.54167V12.2917Z" fill="white"/>
</svg>
