<svg xmlns="http://www.w3.org/2000/svg" width="24" height="24" fill="none"><mask id="a" width="24" height="24" x="0" y="0" maskUnits="userSpaceOnUse" style="mask-type:alpha"><path fill="#D9D9D9" d="M0 0h24v24H0z"/></mask><g mask="url(#a)"><path fill="#33A3A1" d="m9.25 22-.4-3.2a3.79 3.79 0 0 1-.61-.3c-.2-.12-.38-.24-.57-.38L4.7 19.38l-2.75-4.75 2.57-1.94a2.39 2.39 0 0 1-.02-.34v-.68c0-.1 0-.22.02-.34L1.95 9.38 4.7 4.63l2.97 1.25a6.82 6.82 0 0 1 1.18-.68l.4-3.2h5.5l.4 3.2a5.5 5.5 0 0 1 1.17.68l2.98-1.25 2.75 4.75-2.58 1.94.03.34v.68c0 .1-.02.22-.05.34l2.57 1.95-2.75 4.74-2.95-1.25a6.83 6.83 0 0 1-1.17.68l-.4 3.2h-5.5Zm2.8-6.5c.97 0 1.8-.34 2.47-1.03A3.37 3.37 0 0 0 15.55 12c0-.97-.34-1.8-1.03-2.47a3.37 3.37 0 0 0-2.47-1.03c-.98 0-1.81.34-2.49 1.03A3.4 3.4 0 0 0 8.55 12c0 .97.34 1.8 1.01 2.47.68.69 1.5 1.03 2.49 1.03Zm0-2c-.42 0-.77-.15-1.06-.44a1.4 1.4 0 0 1-.44-1.06c0-.42.15-.77.44-1.06.29-.3.64-.44 1.06-.44.42 0 .77.15 1.06.44.3.29.44.64.44 1.06 0 .42-.15.77-.44 1.06-.29.3-.64.44-1.06.44ZM11 20h1.97l.35-2.65a5.6 5.6 0 0 0 2.65-1.53l2.48 1.03.97-1.7-2.15-1.63c.09-.23.15-.47.18-.73a6.13 6.13 0 0 0 0-1.58c-.03-.26-.1-.5-.18-.74l2.15-1.62-.97-1.7-2.48 1.05a5.55 5.55 0 0 0-2.65-1.55L13 4h-1.98l-.35 2.65a5.6 5.6 0 0 0-2.65 1.53L5.55 7.15l-.98 1.7 2.15 1.6a6.06 6.06 0 0 0 0 3.08l-2.15 1.62.98 1.7 2.47-1.05a5.55 5.55 0 0 0 2.65 1.55L11 20Z"/></g></svg>